HIERARCHY
ROOT Hips
{
	OFFSET 0.00000 0.00000 0.00000
	CHANNELS 6 Xposition Yposition Zposition Zrotation Yrotation Xrotation 
	JOINT LHipJoint
	{
		OFFSET 0 0 0
		CHANNELS 3 Zrotation Yrotation Xrotation
		JOINT LeftUpLeg
		{
			OFFSET 1.85590 -1.73949 0.84976
			CHANNELS 3 Zrotation Yrotation Xrotation
			JOINT LeftLeg
			{
				OFFSET 2.36836 -6.50702 0.00000
				CHANNELS 3 Zrotation Yrotation Xrotation
				JOINT LeftFoot
				{
					OFFSET 2.53268 -6.95849 0.00000
					CHANNELS 3 Zrotation Yrotation Xrotation
					JOINT LeftToeBase
					{
						OFFSET 0.15935 -0.43781 1.94506
						CHANNELS 3 Zrotation Yrotation Xrotation
						End Site
						{
							OFFSET 0.00000 -0.00000 1.00661
						}
					}
				}
			}
		}
	}
	JOINT RHipJoint
	{
		OFFSET 0 0 0
		CHANNELS 3 Zrotation Yrotation Xrotation
		JOINT RightUpLeg
		{
			OFFSET -1.68297 -1.73949 0.84976
			CHANNELS 3 Zrotation Yrotation Xrotation
			JOINT RightLeg
			{
				OFFSET -2.44709 -6.72334 0.00000
				CHANNELS 3 Zrotation Yrotation Xrotation
				JOINT RightFoot
				{
					OFFSET -2.43843 -6.69953 0.00000
					CHANNELS 3 Zrotation Yrotation Xrotation
					JOINT RightToeBase
					{
						OFFSET -0.20854 -0.57295 2.02172
						CHANNELS 3 Zrotation Yrotation Xrotation
						End Site
						{
							OFFSET -0.00000 -0.00000 1.05594
						}
					}
				}
			}
		}
	}
	JOINT LowerBack
	{
		OFFSET 0 0 0
		CHANNELS 3 Zrotation Yrotation Xrotation
		JOINT Spine
		{
			OFFSET -0.01560 2.23971 -0.03712
			CHANNELS 3 Zrotation Yrotation Xrotation
			JOINT Spine1
			{
				OFFSET 0.05490 2.19225 -0.19086
				CHANNELS 3 Zrotation Yrotation Xrotation
				JOINT Neck
				{
					OFFSET 0 0 0
					CHANNELS 3 Zrotation Yrotation Xrotation
					JOINT Neck1
					{
						OFFSET -0.12403 1.43168 0.27585
						CHANNELS 3 Zrotation Yrotation Xrotation
						JOINT Head
						{
							OFFSET 0.17855 1.46173 -0.32578
							CHANNELS 3 Zrotation Yrotation Xrotation
							End Site
							{
								OFFSET 0.07217 1.51590 -0.14537
							}
						}
					}
				}
				JOINT LeftShoulder
				{
					OFFSET 0 0 0
					CHANNELS 3 Zrotation Yrotation Xrotation
					JOINT LeftArm
					{
						OFFSET 3.27650 0.85634 0.05396
						CHANNELS 3 Zrotation Yrotation Xrotation
						JOINT LeftForeArm
						{
							OFFSET 4.96755 -0.00000 0.00000
							CHANNELS 3 Zrotation Yrotation Xrotation
							JOINT LeftHand
							{
								OFFSET 3.35751 -0.00000 0.00000
								CHANNELS 3 Zrotation Yrotation Xrotation
								JOINT LeftFingerBase
								{
									OFFSET 0 0 0
									CHANNELS 3 Zrotation Yrotation Xrotation
									JOINT LeftHandIndex1
									{
										OFFSET 0.79697 -0.00000 0.00000
										CHANNELS 3 Zrotation Yrotation Xrotation
										End Site
										{
											OFFSET 0.64254 -0.00000 0.00000
										}
									}
								}
								JOINT LThumb
								{
									OFFSET 0 0 0
									CHANNELS 3 Zrotation Yrotation Xrotation
									End Site
									{
										OFFSET 0.65235 -0.00000 0.65235
									}
								}
							}
						}
					}
				}
				JOINT RightShoulder
				{
					OFFSET 0 0 0
					CHANNELS 3 Zrotation Yrotation Xrotation
					JOINT RightArm
					{
						OFFSET -3.24434 1.02034 0.34688
						CHANNELS 3 Zrotation Yrotation Xrotation
						JOINT RightForeArm
						{
							OFFSET -5.21859 -0.00000 -0.00000
							CHANNELS 3 Zrotation Yrotation Xrotation
							JOINT RightHand
							{
								OFFSET -3.36504 -0.00000 0.00000
								CHANNELS 3 Zrotation Yrotation Xrotation
								JOINT RightFingerBase
								{
									OFFSET 0 0 0
									CHANNELS 3 Zrotation Yrotation Xrotation
									JOINT RightHandIndex1
									{
										OFFSET -0.62044 -0.00000 0.00000
										CHANNELS 3 Zrotation Yrotation Xrotation
										End Site
										{
											OFFSET -0.50022 -0.00000 0.00000
										}
									}
								}
								JOINT RThumb
								{
									OFFSET 0 0 0
									CHANNELS 3 Zrotation Yrotation Xrotation
									End Site
									{
										OFFSET -0.50786 -0.00000 0.50786
									}
								}
							}
						}
					}
				}
			}
		}
	}
}
MOTION
Frames: 16
Frame Time: 0.125
0.00 0.00 0.00 0 0 0 0 0 0 -21 0 0 0 0 0 0 0 0 0 0 0 0 0 0 21 0 0 0 0 0 0 0 0 0 0 0 0 0 0 0 0 0 0 0 0 0 0 -16 0 0 21 0 0 11 0 0 0 -8 0 0 0 0 0 0 0 0 0 0 0 0 0 0 0 0 0 0 0 0 8 0 0 0 0 0 0 0 0 0 0 0 0 0 0 0 0 0
0.00 0.00 0.00 -3.5705 -0.1764 6.8685 0.0000 0.0000 0.0000 -10.2643 -8.7009 -40.1690 2.8717 10.4844 30.5601 0.6033 2.8427 -15.9786 0.4217 -4.1678 -11.5493 0.0000 0.0000 0.0000 30.0616 6.9290 -2.6269 -1.2118 -6.9831 19.6654 -0.0000 -0.0000 0.0000 -0.0000 -0.0000 0.0000 0.6781 0.3368 -4.8165 2.4583 0.3801 -1.4571 2.1666 0.1924 1.1906 -12.8619 -4.8007 -18.3536 16.6241 -6.2692 14.1223 7.0423 -2.1195 8.3910 -0.0000 0.0000 0.0000 -85.4344 6.9337 32.4628 14.8715 -23.9668 -3.1736 -0.0000 0.0000 -7.0065 12.7763 -22.8987 -5.0423 -7.1250 0.0000 -0.0000 -10.1275 6.8631 8.9899 -0.0000 0.0000 0.0000 74.6488 -8.1797 43.5767 -40.1638 48.1667 -18.5612 0.0000 -0.0000 -34.2626 -34.8089 -24.8124 16.2651 7.1250 -0.0000 -0.0000 -6.2080 -59.2558 2.1671
0.00 0.00 0.00 -6.4808 -5.4530 7.4306 0.0000 0.0000 0.0000 -0.5354 -14.6508 -38.8112 0.9722 6.2771 17.5905 0.4739 10.8116 -21.0719 0.4892 -4.4847 -12.4445 0.0000 0.0000 0.0000 31.3916 2.5072 12.2636 -0.0764 -1.7833 4.9071 -0.7341 4.3370 -15.3032 -0.1792 2.7264 -7.5180 3.9084 1.3968 -6.9999 2.6236 1.4905 -1.2959 0.6514 0.7639 2.6150 -11.2500 -4.6721 -19.7997 15.0904 -6.2932 15.8559 6.2568 -2.0999 9.1187 -0.0000 -0.0000 0.0000 -83.4882 10.8225 38.4395 15.4467 -24.7647 -3.4109 -0.0000 0.0000 -6.5877 9.0378 -21.7084 -3.3671 -7.1250 0.0000 -0.0000 -12.4351 8.4364 10.7390 -0.0000 -0.0000 0.0000 77.6026 -10.0965 47.3233 -44.1042 50.3220 -21.5471 0.0000 -0.0000 -34.2374 -34.1451 -27.5150 17.3966 7.1250 -0.0000 -0.0000 -4.8048 -62.1029 2.0009
0.00 0.00 0.00 -7.1148 -8.7725 7.5931 0.0000 0.0000 0.0000 -4.8417 -6.4066 -41.7298 1.9598 8.7818 25.1151 -0.1780 8.5332 -7.5475 0.4649 -4.3737 -12.1303 0.0000 0.0000 0.0000 28.6602 -0.0681 21.5773 0.0000 0.0000 -0.0000 -0.2539 3.1947 -8.9531 -2.6875 10.1711 -29.5326 3.2487 1.5562 -8.5790 3.9033 1.5937 -0.8881 2.4174 0.8106 3.8683 -11.9330 -4.5037 -20.7994 14.5579 -5.6580 16.0969 6.2856 -1.8611 9.2826 0.0000 0.0000 0.0000 -85.6181 13.0810 37.7466 13.3627 -21.8163 -2.5865 -0.0000 0.0000 -2.2971 10.1320 -22.9431 -3.9849 -7.1250 0.0000 -0.0000 -11.7711 7.1123 10.4518 0.0000 0.0000 0.0000 77.4840 -11.8815 50.0165 -41.2344 48.7844 -19.3627 0.0000 -0.0000 -29.1830 -34.7702 -27.5863 17.8223 7.1250 -0.0000 -0.0000 -5.5923 -62.3532 2.3628
0.00 0.00 0.00 -1.3376 -11.5249 6.2740 0.0000 0.0000 0.0000 -17.1972 -2.6114 -35.5970 3.8260 11.9252 35.4678 0.1680 3.4424 -9.7984 0.0241 -1.0013 -2.7523 0.0000 0.0000 0.0000 17.0502 -1.3549 7.1497 -4.2585 -12.4967 37.5126 -0.2030 -6.5097 8.6114 -0.2390 3.1462 -8.6860 -1.0950 0.8213 -5.7799 2.7737 1.1149 -2.6181 3.5397 0.5782 0.4672 -12.1792 -4.2827 -21.8610 13.8554 -5.1470 17.5646 6.2055 -1.6706 9.8855 0.0000 -0.0000 0.0000 -86.7713 13.1282 30.7983 10.0182 -16.7681 -1.4802 -0.0000 -0.0000 7.2452 -2.6765 -18.1413 0.8339 -7.1250 0.0000 -0.0000 -19.8998 12.5612 16.1228 0.0000 -0.0000 0.0000 81.4719 -12.3778 45.6183 -22.9612 34.0463 -7.1165 0.0000 -0.0000 -20.9512 -31.6550 -22.9558 13.5206 7.1250 -0.0000 -0.0000 -2.8797 -56.4114 0.8062
0.00 0.00 0.00 0.8268 -11.9767 5.2336 0.0000 0.0000 0.0000 -21.7462 -1.4003 -28.4848 2.9976 10.6912 31.2454 0.3012 3.6070 -12.3346 0.0235 -0.9899 -2.7211 0.0000 0.0000 0.0000 15.2218 0.5371 -3.0578 -8.4857 -16.4651 54.2939 0.2857 -11.9687 3.4955 -0.0960 1.9985 -5.5014 -2.6243 0.4986 -5.1035 2.4285 0.7569 -2.1545 4.0200 0.4001 0.5753 -11.6560 -3.9861 -22.7327 12.8631 -4.6071 17.9396 5.8465 -1.4646 10.0497 -0.0000 -0.0000 0.0000 -85.1735 9.2689 34.4722 10.7961 -17.9750 -1.7125 -0.0000 -0.0000 3.5652 -1.6117 -17.4539 0.4835 -7.1250 0.0000 -0.0000 -19.2935 13.1803 15.2988 -0.0000 -0.0000 0.0000 81.5647 -12.0611 42.1925 -21.3735 32.2618 -6.2481 0.0000 -0.0000 -19.4163 -32.1817 -22.5404 13.5622 7.1250 -0.0000 -0.0000 -3.5510 -56.0671 0.9649
0.00 0.00 0.00 1.7185 -9.3800 4.8881 0.0000 0.0000 0.0000 -24.7265 -2.2933 -20.4658 2.1913 9.2537 26.5923 0.4558 4.0554 -14.8889 0.0085 -0.5936 -1.6312 0.0000 0.0000 0.0000 16.6000 4.5934 -15.4077 -10.9465 -17.9088 62.6078 -0.0765 -7.2679 -11.9415 -0.2816 3.4132 -9.4313 -3.2766 -0.5907 -4.9124 2.6488 -0.6714 -1.9917 4.5410 -0.3183 0.7713 -11.1550 -3.7619 -21.8938 11.9522 -4.3664 18.3236 5.4647 -1.4456 9.9599 0.0000 -0.0000 0.0000 -83.0798 1.6862 37.7482 12.0178 -19.8313 -2.1083 -0.0000 -0.0000 2.1834 0.4591 -17.5653 -0.1385 -7.1250 0.0000 -0.0000 -17.9788 13.0049 14.2052 0.0000 -0.0000 0.0000 80.3057 -12.6169 41.4316 -22.4740 33.5086 -6.8457 0.0000 -0.0000 -21.4245 -32.0121 -19.8014 11.9575 7.1250 -0.0000 -0.0000 -3.8007 -52.9473 0.7440
0.00 0.00 0.00 3.4963 -3.8765 3.2742 0.0000 0.0000 0.0000 -28.6783 -0.8056 -7.6399 1.5593 7.8806 22.3521 1.0458 0.8994 -19.6701 0.0004 0.1269 0.3486 0.0000 0.0000 0.0000 14.4834 13.2156 -28.8188 -6.8947 -15.2425 48.4748 -1.2640 -4.8242 -23.4756 -1.0424 6.4932 -18.2224 -4.7155 -1.7482 -6.5944 2.6584 -2.0743 -0.4152 5.2238 -1.1297 3.5393 -13.4159 -4.8899 -21.0848 11.4813 -5.2997 19.7817 5.5758 -2.1292 10.5086 0.0000 -0.0000 0.0000 -80.9877 -9.4709 45.2860 18.1955 -28.4068 -4.6419 -0.0000 0.0000 -7.5552 14.8513 -23.9888 -6.1531 -7.1250 0.0000 -0.0000 -8.8938 5.5101 8.0991 0.0000 -0.0000 0.0000 78.6760 -12.8158 39.5103 -21.8271 32.7811 -6.4920 0.0000 -0.0000 -21.6703 -30.9599 -18.7996 10.9418 7.1250 -0.0000 -0.0000 -2.8355 -51.6101 0.4619
0.00 0.00 0.00 3.8848 1.2549 3.7904 0.0000 0.0000 0.0000 -28.7741 2.5527 5.8913 0.1728 2.6781 7.3837 0.7720 -1.1464 -16.2523 0.0241 -1.0012 -2.7522 0.0000 0.0000 0.0000 9.0821 19.2380 -33.3519 -3.1767 -10.9757 32.1981 -1.3691 0.2335 -22.0608 -0.9948 6.3477 -17.7967 -4.2442 -2.6533 -8.1637 1.8785 -3.2245 -0.5577 3.9568 -1.6987 4.3432 -12.3686 -4.9499 -19.9784 10.9950 -5.8398 20.9691 5.1677 -2.3887 10.7588 0.0000 -0.0000 0.0000 -79.4629 -9.7563 52.1402 23.2833 -34.3972 -7.2977 -0.0000 0.0000 -12.8339 16.6517 -23.9277 -6.9167 -7.1250 0.0000 -0.0000 -7.7787 5.3226 7.0907 0.0000 -0.0000 0.0000 79.9757 -14.7485 37.1827 -20.3166 31.0218 -5.6936 0.0000 -0.0000 -20.2164 -32.2571 -20.2584 12.3271 7.1250 -0.0000 -0.0000 -3.9996 -53.5146 0.8385
0.00 0.00 0.00 5.0317 8.6548 6.5192 0.0000 0.0000 0.0000 -19.8366 11.9885 23.2466 0.0000 -0.0000 -0.0000 -0.0224 -4.0652 -1.7952 0.4889 -4.4835 -12.4412 0.0000 0.0000 0.0000 7.3150 15.8560 -40.3922 -3.7328 -11.7960 35.0143 -0.0348 -3.8722 -6.8240 -1.0146 6.4086 -17.9746 -5.4653 -3.5350 -7.5001 1.7396 -4.3226 -1.0524 4.4049 -2.2366 3.6479 -13.3776 -6.0498 -20.1104 12.1828 -7.1783 18.8979 5.5028 -2.9323 10.3127 -0.0000 -0.0000 0.0000 -88.5107 3.0776 41.7804 12.6297 -20.7423 -2.3205 -0.0000 -0.0000 1.4976 0.0161 -16.1817 -0.0045 -7.1250 0.0000 -0.0000 -18.3650 14.3351 13.9979 -0.0000 -0.0000 0.0000 81.3695 -19.0248 30.4065 -16.0846 25.6353 -3.6825 0.0000 -0.0000 -17.4434 -30.9353 -21.9934 12.6502 7.1250 -0.0000 -0.0000 -2.2754 -55.1799 0.5690
0.00 0.00 0.00 2.3504 9.1204 6.4977 0.0000 0.0000 0.0000 -15.0118 13.1076 18.5103 0.4220 4.1696 11.5543 0.1793 2.2997 7.5323 0.5928 -4.9291 -13.7065 0.0000 0.0000 0.0000 13.5313 14.1285 -37.2488 -4.3139 -12.5668 37.7678 -0.1849 0.0610 -8.1004 -0.6739 5.2494 -14.6212 -2.9373 -3.2950 -6.4032 2.5378 -4.2593 -1.2479 3.8920 -2.1588 2.7029 -13.7316 -6.0488 -19.9699 13.0626 -7.1312 17.1375 5.8461 -2.8440 9.7119 -0.0000 0.0000 0.0000 -90.4379 6.6117 27.5818 8.8890 -14.9833 -1.1712 -0.0000 -0.0000 11.6305 8.3809 -20.6366 -2.9723 -7.1250 0.0000 -0.0000 -12.8458 9.5477 10.8201 -0.0000 0.0000 0.0000 80.6976 -18.1523 28.5040 -15.2461 24.4879 -3.3273 0.0000 -0.0000 -12.5696 -28.2012 -19.5326 10.1641 7.1250 -0.0000 -0.0000 0.1305 -51.9066 -0.0222
0.00 0.00 0.00 0.5933 9.7629 7.0225 0.0000 0.0000 0.0000 -13.5032 10.4461 7.2447 3.0032 10.7002 31.2755 0.2167 6.4293 8.8102 0.1517 -2.5098 -6.9167 0.0000 0.0000 0.0000 17.1966 13.0493 -33.8110 -3.8049 -11.8962 35.3657 -0.3029 1.8176 -9.9215 -0.4217 4.1678 -11.5492 -1.6845 -3.1646 -5.6000 3.2407 -4.1840 -1.5897 3.9805 -2.0992 1.8593 -14.4425 -6.3603 -19.7815 13.8798 -7.4889 16.3598 6.1912 -2.9794 9.5307 -0.0000 0.0000 0.0000 -90.2060 8.5433 26.8894 8.7349 -14.7369 -1.1317 -0.0000 -0.0000 13.5040 5.6594 -19.8520 -1.9274 -7.1250 0.0000 -0.0000 -14.5771 10.5259 12.0768 -0.0000 0.0000 0.0000 79.6955 -17.2690 30.0834 -15.7207 25.1405 -3.5265 0.0000 -0.0000 -15.8646 -32.5554 -19.9944 12.3143 7.1250 -0.0000 -0.0000 -4.3542 -53.2772 0.8878
0.00 0.00 0.00 -0.7204 9.6865 8.1681 0.0000 0.0000 0.0000 -14.0706 5.5832 -8.2709 7.9956 16.1160 52.5469 -0.5498 13.2398 -2.2362 0.3110 -3.5854 -9.9130 0.0000 0.0000 0.0000 21.1949 10.8624 -27.5895 -2.6804 -10.1588 29.4926 -0.4246 4.4614 -11.5922 -0.6254 5.0606 -14.0816 -0.7324 -2.0332 -5.0229 3.5892 -2.7154 -1.9902 3.9497 -1.3476 0.9747 -15.1065 -7.0272 -18.5996 15.0358 -8.4726 14.6736 6.5346 -3.4143 8.9930 -0.0000 0.0000 0.0000 -86.7647 13.4676 43.1980 13.0591 -21.3738 -2.4748 -0.0000 0.0000 -1.3559 0.4773 -17.8330 -0.1462 -7.1250 0.0000 -0.0000 -17.9489 12.7495 14.2804 -0.0000 0.0000 0.0000 77.4489 -15.4890 33.4163 -18.1655 28.3686 -4.6276 0.0000 -0.0000 -18.1265 -31.3145 -25.1418 14.4919 7.1250 -0.0000 -0.0000 -1.9767 -58.7511 0.6647
0.00 0.00 0.00 -2.1965 6.3651 7.7890 0.0000 0.0000 0.0000 -15.6711 -1.8318 -29.7071 10.3185 17.5851 60.5475 0.3389 5.9782 -14.8088 0.0331 -1.1748 -3.2298 0.0000 0.0000 0.0000 26.0890 9.8790 -17.3856 -2.1561 -9.1840 26.3726 -0.8598 7.6128 -16.6053 -0.6877 5.3016 -14.7707 0.2405 0.0853 -4.5326 3.4317 0.0327 -0.5632 3.4029 0.0085 1.9613 -13.5227 -7.1215 -19.7568 14.8666 -8.8480 14.5414 6.1286 -3.4652 9.1351 0.0000 0.0000 0.0000 -85.8362 14.9088 41.8142 17.9587 -28.1043 -4.5298 -0.0000 0.0000 -17.3187 13.4715 -24.2181 -5.6123 -7.1250 0.0000 -0.0000 -9.7552 5.4600 8.9158 0.0000 0.0000 0.0000 74.4044 -7.6179 35.1972 -24.0558 35.2232 -7.7387 0.0000 -0.0000 -20.7739 -32.8979 -21.2722 13.2075 7.1250 -0.0000 -0.0000 -4.5530 -54.7986 1.0975
0.00 0.00 0.00 5.2415 7.4406 7.2758 0.0000 0.0000 0.0000 -28.6578 7.0076 11.5329 0.0000 -0.0000 -0.0000 0.6129 -3.8186 -13.9847 0.0051 0.4618 1.2689 0.0000 0.0000 0.0000 -4.0825 31.0041 -36.8401 -1.8169 -8.4737 24.1624 -2.9433 -8.4285 -36.1649 -1.4705 7.6630 -21.6951 -7.0026 -5.0170 -7.9362 1.8696 -6.1390 -0.5990 5.1014 -3.2100 4.7622 -12.9379 -4.7048 -19.2452 12.4187 -5.8472 21.8019 5.8424 -2.3019 10.9929 0.0000 -0.0000 0.0000 -82.8303 -20.5382 61.8234 20.3398 -31.0495 -5.7056 -0.0000 0.0000 -17.7961 12.1059 -20.1585 -4.2274 -7.1250 0.0000 -0.0000 -10.4730 9.6713 8.7155 0.0000 -0.0000 0.0000 79.8533 -19.7893 32.5563 -19.5690 30.1196 -5.3134 0.0000 -0.0000 -20.0315 -32.7128 -23.0922 14.1397 7.1250 -0.0000 -0.0000 -4.0494 -56.8077 1.1732
0.00 0.00 0.00 -5.3964 -0.2359 8.2745 0.0000 0.0000 0.0000 -12.1586 -10.5978 -43.4451 2.9014 10.5337 30.7229 -0.2071 8.2904 -0.8765 0.0083 -0.5896 -1.6203 0.0000 0.0000 0.0000 27.3999 -4.3639 23.8428 0.0000 -0.0000 0.0000 -0.0859 2.3933 6.9564 -0.7655 5.5872 -15.5911 1.4096 2.8161 -9.2766 2.5642 3.5081 -1.5950 2.2910 1.7486 3.4590 -14.0609 -6.4554 -18.5166 13.9562 -8.4363 21.2065 6.1866 -3.4185 11.1673 -0.0000 -0.0000 0.0000 -86.0835 21.6600 38.5228 12.2985 -20.2508 -2.2045 -0.0000 0.0000 -2.5065 7.8068 -21.9081 -2.9285 -7.1250 0.0000 -0.0000 -13.2047 8.3528 11.4633 -0.0000 -0.0000 0.0000 82.3405 -4.5273 38.7626 -18.8930 29.2855 -4.9784 0.0000 -0.0000 -13.6636 -31.0560 -23.2957 13.3956 7.1250 -0.0000 -0.0000 -2.1338 -56.6523 0.6097
